<svg width="46" height="53" viewBox="0 0 46 53" fill="none" xmlns="http://www.w3.org/2000/svg">
<path d="M26 3.65625C26 1.9994 24.6569 0.65625 23 0.65625C21.3431 0.65625 20 1.9994 20 3.65625H26ZM20.8787 51.5276C22.0503 52.6991 23.9497 52.6991 25.1213 51.5276L44.2132 32.4357C45.3848 31.2641 45.3848 29.3646 44.2132 28.193C43.0416 27.0215 41.1421 27.0215 39.9706 28.193L23 45.1636L6.02944 28.193C4.85786 27.0215 2.95837 27.0215 1.7868 28.193C0.615223 29.3646 0.615223 31.2641 1.7868 32.4357L20.8787 51.5276ZM20 3.65625V49.4062H26V3.65625H20Z" fill="white"/>
</svg>
