<svg width="269" height="155" viewBox="0 0 269 155" fill="none" xmlns="http://www.w3.org/2000/svg">
<path d="M187.316 105.115L165.579 51.0649V23.3055H154.4L151.2 15.5L147.199 5.5L177.274 5.60703L208.76 5.64375V16.0352V23.3055H187.316V64.2102V105.115Z" fill="#0BBF9B"/>
<path d="M64.5252 116.575C54.8159 136.132 64.5248 156.305 94.1941 152.706C98.1597 140.516 97.6349 141.441 99.4816 138.312C106.678 126.122 138.403 128.472 146.922 131.85C155.441 135.228 157.774 152.486 159.553 152.706C196.125 157.225 194.314 128.374 187.313 116.575C174.388 87.7875 147.03 26.7937 139.725 11.1189C132.675 -4.00933 118.08 -0.631258 113.288 11.1189C102.027 38.7314 74.8065 95.8656 64.5252 116.575Z" fill="#0BBF9B"/>
<path d="M94.194 152.706C98.1597 140.516 97.6349 141.441 99.4816 138.312C106.678 126.122 138.403 128.472 146.922 131.85C155.441 135.228 157.774 152.486 159.553 152.706C196.125 157.225 194.314 128.374 187.313 116.575C174.388 87.7875 147.03 26.7937 139.725 11.1189C132.675 -4.00933 118.08 -0.631258 113.288 11.1189C102.027 38.7314 74.8065 95.8656 64.5252 116.575C54.8159 136.132 64.5248 156.305 94.1941 152.706" stroke="#0BBF9B" stroke-width="1.3686"/>
<mask id="mask0_560_890" style="mask-type:alpha" maskUnits="userSpaceOnUse" x="60" y="0" width="133" height="154">
<path d="M64.5291 116.575C54.8198 136.132 64.5287 156.305 94.198 152.706C98.1636 140.516 97.6388 141.441 99.4855 138.312C106.682 126.122 138.407 128.472 146.926 131.85C155.445 135.228 157.778 152.486 159.557 152.706C196.129 157.225 194.318 128.374 187.317 116.575C174.392 87.7875 147.034 26.7937 139.729 11.1189C132.679 -4.00933 118.083 -0.631258 113.292 11.1189C102.031 38.7314 74.8104 95.8656 64.5291 116.575Z" fill="#00C7AF"/>
<path d="M94.1979 152.706C98.1636 140.516 97.6388 141.441 99.4855 138.312C106.682 126.122 138.407 128.472 146.926 131.85C155.445 135.228 157.778 152.486 159.557 152.706C196.129 157.225 194.318 128.374 187.317 116.575C174.392 87.7875 147.034 26.7937 139.729 11.1189C132.679 -4.00933 118.083 -0.631258 113.292 11.1189C102.031 38.7314 74.8104 95.8656 64.5291 116.575C54.8198 136.132 64.5287 156.305 94.198 152.706" stroke="#00C7AF" stroke-width="1.3686"/>
</mask>
<g mask="url(#mask0_560_890)">
<path d="M126.805 52.6877C154.065 52.8052 158.077 114.96 157 146L157 148.579H96.1556C95.9108 115.14 99.5448 52.5702 126.805 52.6877Z" fill="#BFCDC9"/>
</g>
<ellipse cx="126.307" cy="79.6563" rx="19.0938" ry="19.0938" fill="#1E1E1E"/>
<path d="M16.6887 127.072V107.574C16.5785 99.3122 15.532 93.8043 13.5492 91.0504C11.6766 88.2965 7.16016 86.7543 0 86.4239V73.3703C7.16016 73.0399 11.6766 71.5528 13.5492 68.909C15.532 66.1551 16.5785 60.5922 16.6887 52.2203V31.7313C16.6887 13.6656 23.5184 4.63281 37.1777 4.63281H46.5961V16.1992H40.152C36.5168 16.1992 33.8731 17.2457 32.2207 19.3387C30.6785 21.3215 29.9074 24.516 29.9074 28.9223V55.0293C29.9074 62.6301 28.5305 67.9727 25.7766 71.0571C23.0227 74.1414 18.0106 75.959 10.7402 76.5098V82.9539C17.9004 83.5047 22.8574 85.3774 25.6113 88.5719C28.4754 91.6563 29.9074 97.054 29.9074 104.765V129.881C29.9074 134.287 30.6785 137.481 32.2207 139.464C33.8731 141.557 36.5168 142.604 40.152 142.604H46.5961V154.17H37.1777C23.5184 154.17 16.6887 145.137 16.6887 127.072Z" fill="#0BBF9B"/>
<path d="M252.292 32.5574V52.0551C252.402 60.3168 253.393 65.8246 255.266 68.5785C257.249 71.3325 261.82 72.8746 268.98 73.2051V86.2586C261.82 86.5891 257.249 88.1313 255.266 90.8852C253.393 93.529 252.402 99.0368 252.292 107.409V127.898C252.292 145.963 245.462 154.996 231.803 154.996H222.384V143.43H228.828C232.464 143.43 235.052 142.383 236.594 140.29C238.247 138.307 239.073 135.113 239.073 130.707V104.6C239.073 96.9989 240.45 91.6563 243.204 88.5719C245.958 85.4875 250.97 83.67 258.24 83.1192V76.675C251.08 76.1243 246.068 74.3067 243.204 71.2223C240.45 68.0278 239.073 62.575 239.073 54.8641V29.7485C239.073 25.232 238.247 21.9824 236.594 19.9996C235.052 18.0168 232.464 17.0254 228.828 17.0254H222.384V5.45898H231.803C245.462 5.45898 252.292 14.4918 252.292 32.5574Z" fill="#0BBF9B"/>
</svg>
