<svg width="1402" height="912" viewBox="0 0 1402 912" fill="none" xmlns="http://www.w3.org/2000/svg">
<path d="M410.672 406.361C382.296 469.475 450.713 606.148 542.909 643.749C635.104 681.349 817.365 636.967 813.467 537.374C809.541 437.754 479.342 253.608 410.672 406.361Z" stroke="#03FFC3" stroke-width="0.5608" stroke-miterlimit="10"/>
<path d="M404.617 400.641C373.269 471.193 446.705 623.071 546.696 664.336C646.687 705.6 845.294 654.847 841.761 543.851C838.228 432.854 480.466 229.895 404.617 400.641Z" stroke="#03FFC3" stroke-width="0.8412" stroke-miterlimit="10"/>
<path d="M401.224 399.822C366.398 479.78 444.209 650.281 552.191 695.702C660.174 741.123 876.194 681.619 873.698 556.43C871.203 431.242 485.54 206.324 401.224 399.822Z" stroke="#03FFC3" stroke-width="1.402" stroke-miterlimit="10"/>
<path d="M417.823 407.7C392.475 462.884 456.434 583.615 541.143 617.524C625.852 651.432 792.157 614.16 787.586 526.627C783.016 439.038 479.146 274.117 417.823 407.7Z" stroke="#03FFC3" stroke-width="0.5608" stroke-miterlimit="10"/>
<path d="M422.168 412.652C395.39 471.965 460.583 600.681 548.096 636.23C635.609 671.78 808.419 630.406 804.494 536.692C800.568 442.978 486.997 269.087 422.168 412.652Z" stroke="#03FFC3" stroke-width="0.5608" stroke-miterlimit="10"/>
<path d="M419.562 410.919C393.568 468.318 459.911 594.436 545.209 628.974C630.506 663.511 798.718 623.696 794.765 532.936C790.811 442.176 482.511 271.976 419.562 410.919Z" stroke="#03FFC3" stroke-width="0.5608" stroke-miterlimit="10"/>
<path d="M404.084 402.862C371.922 475.027 447.854 630.597 550.985 673.01C654.116 715.423 858.64 663.849 854.827 550.228C850.985 436.579 481.923 228.205 404.084 402.862Z" stroke="#03FFC3" stroke-width="0.8412" stroke-miterlimit="10"/>
<path d="M403.41 405.643C370.407 479.887 447.825 639.777 553.228 683.256C658.63 726.709 867.893 673.357 864.135 556.537C860.378 439.716 483.268 225.927 403.41 405.643Z" stroke="#03FFC3" stroke-width="1.1216" stroke-miterlimit="10"/>
<path d="M393.793 381.91C356.92 466.518 439.302 646.972 553.565 695.046C667.828 743.12 896.466 680.142 893.83 547.625C891.195 415.108 483.016 177.119 393.793 381.91Z" stroke="#03FFC3" stroke-width="0.8412" stroke-miterlimit="10"/>
<path d="M387.735 371.687C349.797 459.001 434.001 645.007 551.18 694.42C668.36 743.834 902.998 678.56 900.475 541.913C897.951 405.267 479.594 160.305 387.735 371.687Z" stroke="#03FFC3" stroke-width="0.8412" stroke-miterlimit="10"/>
<path d="M390.204 362.165C351.173 452.651 436.19 644.727 555.332 695.344C674.474 745.961 913.823 677.488 911.861 536.138C909.898 394.815 484.699 143.153 390.204 362.165Z" stroke="#03FFC3" stroke-width="0.8412" stroke-miterlimit="10"/>
<path d="M385.044 353.283C344.947 446.095 432.656 643.257 555.415 695.323C678.175 747.389 924.534 677.33 922.375 532.316C920.188 387.247 482.119 128.639 385.044 353.283Z" stroke="#03FFC3" stroke-width="0.5608" stroke-miterlimit="10"/>
<path d="M379.773 344.169C338.554 439.36 429.263 641.772 555.92 695.343C682.577 748.913 936.479 677.377 934.067 528.561C931.656 379.746 479.539 113.81 379.773 344.169Z" stroke="#03FFC3" stroke-width="0.5608" stroke-miterlimit="10"/>
<path d="M380.194 342.67C338.218 439.61 430.47 645.715 559.285 700.242C688.101 754.769 946.462 681.838 944.022 530.289C941.583 378.739 481.755 108.044 380.194 342.67Z" stroke="#03FFC3" stroke-width="0.5608" stroke-miterlimit="10"/>
<path d="M374.755 338.9C331.573 438.465 426.965 650.367 559.931 706.562C692.897 762.758 959.389 688.077 956.697 532.316C954.005 376.555 479.316 97.9023 374.755 338.9Z" stroke="#03FFC3" stroke-width="0.5608" stroke-miterlimit="10"/>
<path d="M377.053 330.534C329.637 439.835 434.366 672.437 580.315 734.102C726.263 795.766 1018.78 713.811 1015.83 542.846C1012.89 371.881 491.792 65.9922 377.053 330.534Z" stroke="#03FFC3" stroke-width="1.402" stroke-miterlimit="10"/>
<path d="M367.661 322.784C318.423 436.324 427.19 677.923 578.802 741.994C730.415 806.064 1034.26 720.91 1031.2 543.327C1028.14 365.744 486.859 47.9602 367.661 322.784Z" stroke="#03FFC3" stroke-width="1.1216" stroke-miterlimit="10"/>
<path d="M369.146 317.073C319.095 432.472 429.657 678.036 583.765 743.146C737.872 808.256 1046.7 721.707 1043.59 541.226C1040.45 360.717 490.307 37.7647 369.146 317.073Z" stroke="#03FFC3" stroke-width="0.8412" stroke-miterlimit="10"/>
<path d="M376.633 332.029C329.974 439.58 433.021 668.436 576.642 729.116C720.263 789.796 1008.07 709.154 1005.15 540.95C1002.23 372.747 489.55 71.7533 376.633 332.029Z" stroke="#03FFC3" stroke-width="1.1216" stroke-miterlimit="10"/>
<path d="M376.129 333.897C330.423 439.287 431.395 663.604 572.156 723.053C712.917 782.503 994.971 703.474 992.139 538.634C989.279 373.767 486.802 78.7893 376.129 333.897Z" stroke="#03FFC3" stroke-width="0.8412" stroke-miterlimit="10"/>
<path d="M360.788 302.695C309.083 421.867 423.29 675.498 582.417 742.741C741.544 809.984 1060.5 720.619 1057.3 534.203C1054.11 347.788 485.903 14.2252 360.788 302.695Z" stroke="#03FFC3" stroke-width="0.8412" stroke-miterlimit="10"/>
<path d="M352.099 287.734C298.711 410.844 416.647 672.843 581.046 742.301C745.444 811.759 1074.91 719.44 1071.61 526.872C1068.27 334.303 481.335 -10.2522 352.099 287.734Z" stroke="#03FFC3" stroke-width="0.5608" stroke-miterlimit="10"/>
<path d="M354.314 279.304C298.879 407.829 419.535 680.629 588.672 752.521C757.81 824.413 1097.6 727.089 1094.82 526.318C1092.05 325.546 488.486 -31.8077 354.314 279.304Z" stroke="#03FFC3" stroke-width="0.5608" stroke-miterlimit="10"/>
<path d="M342.283 258.852C284.521 392.737 410.364 676.968 586.764 751.922C763.163 826.877 1117.42 725.561 1114.5 516.394C1111.59 307.227 482.09 -65.2489 342.283 258.852Z" stroke="#03FFC3" stroke-width="0.5608" stroke-miterlimit="10"/>
<path d="M343.07 255.96C283.849 393.208 412.861 684.549 593.663 761.363C774.465 838.177 1137.58 734.318 1134.58 519.955C1131.58 305.565 486.382 -76.2077 343.07 255.96Z" stroke="#03FFC3" stroke-width="0.5608" stroke-miterlimit="10"/>
<path d="M343.937 252.736C283.09 393.73 415.635 693.029 601.4 771.948C787.165 850.868 1160.21 744.165 1157.1 523.923C1153.98 303.681 491.175 -88.5379 343.937 252.736Z" stroke="#03FFC3" stroke-width="0.8412" stroke-miterlimit="10"/>
<path d="M343.994 252.754C282.502 393.584 420.739 694.277 612.084 774.564C803.429 854.851 1185.89 750.472 1181.18 529.82C1176.47 309.168 492.858 -88.1374 343.994 252.754Z" stroke="#03FFC3" stroke-width="0.8412" stroke-miterlimit="10"/>
<path d="M345.115 248.702C281.577 394.208 424.412 704.91 622.122 787.849C819.832 870.789 1215.03 762.938 1210.15 534.957C1205.27 306.976 498.915 -103.483 345.115 248.702Z" stroke="#03FFC3" stroke-width="1.1216" stroke-miterlimit="10"/>
<path d="M326.805 246.993C260.547 399.09 408.458 723.437 613.71 809.795C818.963 896.152 1229.67 782.887 1224.98 544.733C1220.27 306.58 487.166 -121.161 326.805 246.993Z" stroke="#03FFC3" stroke-width="0.5608" stroke-miterlimit="10"/>
<path d="M307.065 242.828C239.404 398.151 390.428 729.362 600.055 817.552C809.682 905.742 1229.08 790.069 1224.28 546.884C1219.46 303.699 470.791 -133.121 307.065 242.828Z" stroke="#03FFC3" stroke-width="0.5608" stroke-miterlimit="10"/>
<path d="M285.867 242.367C216.777 400.999 370.997 739.238 585.082 829.314C799.167 919.391 1227.45 801.258 1222.54 552.904C1217.66 304.524 453.098 -141.566 285.867 242.367Z" stroke="#03FFC3" stroke-width="0.5608" stroke-miterlimit="10"/>
<path d="M402.598 394.514C367.156 476.223 445.499 650.169 554.659 696.274C663.819 742.378 882.615 681.124 880.4 553.311C878.185 425.497 488.4 196.723 402.598 394.514Z" stroke="#03FFC3" stroke-width="1.1216" stroke-miterlimit="10"/>
<path d="M342.675 257.435C284.183 392.987 411.597 680.719 590.184 756.603C768.77 832.487 1127.4 729.913 1124.43 518.149C1121.43 306.411 484.22 -70.6586 342.675 257.435Z" stroke="#03FFC3" stroke-width="0.5608" stroke-miterlimit="10"/>
<path d="M342.9 256.588C283.988 393.125 412.327 682.934 592.204 759.366C772.081 835.797 1133.29 732.485 1130.32 519.188C1127.29 305.92 485.484 -73.8846 342.9 256.588Z" stroke="#03FFC3" stroke-width="0.5608" stroke-miterlimit="10"/>
<path d="M343.489 254.374C283.484 393.454 414.206 688.706 597.447 766.531C780.689 844.357 1148.66 739.131 1145.63 521.87C1142.6 304.608 488.736 -82.2511 343.489 254.374Z" stroke="#03FFC3" stroke-width="0.5608" stroke-miterlimit="10"/>
</svg>
