<svg width="40" height="40" viewBox="0 0 40 40" fill="none" xmlns="http://www.w3.org/2000/svg">
<g clip-path="url(#clip0_544_23890)">
<path d="M31.6667 0H8.33333C3.73167 0 0 3.73167 0 8.33333V31.6667C0 36.2683 3.73167 40 8.33333 40H31.6667C36.27 40 40 36.2683 40 31.6667V8.33333C40 3.73167 36.27 0 31.6667 0ZM7.77833 25.8733C7.10333 25.265 6.66667 24.3683 6.66667 23.3533C6.66667 22.34 7.10333 21.4433 7.77833 20.8333V25.8733ZM10 26.6667C9.595 26.6667 9.385 26.6717 8.88833 26.5133V20.1933C9.415 20.025 9.66333 20.0317 10 20.0583V26.6667ZM12.2217 26.6667H11.1117V20.37L11.455 20.5717C11.6067 19.9467 11.8767 19.375 12.2233 18.8667L12.2217 26.6667ZM14.445 26.6667H13.3333V17.7033C13.6767 17.4467 14.0433 17.2267 14.445 17.075V26.6667ZM16.6667 26.6667H15.555V16.825C15.9733 16.78 16.1017 16.7483 16.6667 16.835V26.6667ZM18.8883 26.6667H17.7767V17.1667L18.1983 17.3717C18.3967 17.0267 18.6333 16.7133 18.8883 16.4183V26.6667ZM30.1 26.6667H20V15.42C20.8867 14.81 21.9333 14.445 23.07 14.445C26.085 14.445 28.5283 16.935 28.7533 20.0883C30.925 19.025 33.3333 20.7333 33.3333 23.215C33.3333 25.12 31.885 26.6667 30.1 26.6667Z" fill="#0BBF9B"/>
</g>
<defs>
<clipPath id="clip0_544_23890">
<rect width="40" height="40" fill="white"/>
</clipPath>
</defs>
</svg>
