<svg width="40" height="40" viewBox="0 0 40 40" fill="none" xmlns="http://www.w3.org/2000/svg">
<g clip-path="url(#clip0_544_23894)">
<path d="M16.6667 15.555L25.555 19.9917L16.6667 24.445V15.555ZM40 8.33333V31.6667C40 36.2683 36.27 40 31.6667 40H8.33333C3.73167 40 0 36.2683 0 31.6667V8.33333C0 3.73167 3.73167 0 8.33333 0H31.6667C36.27 0 40 3.73167 40 8.33333ZM33.3333 20C33.3 13.1283 32.795 10.5 28.4617 10.205C24.4567 9.93167 15.5383 9.93333 11.54 10.205C7.21 10.5 6.7 13.1167 6.66667 20C6.7 26.8717 7.205 29.5 11.5383 29.795C15.5367 30.0667 24.455 30.0683 28.46 29.795C32.79 29.5 33.3 26.8833 33.3333 20Z" fill="#0BBF9B"/>
</g>
<defs>
<clipPath id="clip0_544_23894">
<rect width="40" height="40" fill="white"/>
</clipPath>
</defs>
</svg>
